<svg xmlns="http://www.w3.org/2000/svg" width="80" height="80" style="shape-rendering:geometricPrecision;text-rendering:geometricPrecision;image-rendering:optimizeQuality;fill-rule:evenodd;clip-rule:evenodd"><path style="opacity:.808" fill="#272727" d="M35.5 16.5c9.068-.928 14.4 3.072 16 12-.127 2.887-1.127 5.387-3 7.5 5.258 2.105 6.258 5.439 3 10a8.434 8.434 0 0 1-4 .5c-.009 1.808.491 3.475 1.5 5a100.577 100.577 0 0 0 10 9c1.989 3.753 2.822 7.753 2.5 12h-44c-.322-4.247.511-8.247 2.5-12 5.077-3.243 8.91-7.576 11.5-13-7.43-3.216-7.762-7.05-1-11.5-4.785-8.145-3.119-14.645 5-19.5z"/><path style="opacity:1" fill="#454242" d="M46.5 23.5c.617.11 1.117.444 1.5 1 1.407 4.9.24 8.9-3.5 12a8.434 8.434 0 0 1-4-.5c5.427-2.441 7.427-6.608 6-12.5z"/><path style="opacity:1" fill="#696666" d="M35.5 20.5c.438-.065.772.101 1 .5-2.456 2.407-4.29 5.24-5.5 8.5a4.932 4.932 0 0 1-.5-3c.262-3.199 1.928-5.199 5-6z"/><path style="opacity:1" fill="#555251" d="M35.5 20.5c4.476-1.982 8.143-.982 11 3 1.427 5.892-.573 10.059-6 12.5a8.434 8.434 0 0 0 4 .5c0 .667.333 1 1 1 1.141 2.049 1.141 4.049 0 6h-17a4.932 4.932 0 0 1 .5-3c1.972-.805 3.472-2.139 4.5-4-2.895-3.033-3.895-6.366-3-10a4.932 4.932 0 0 0 .5 3c1.21-3.26 3.044-6.093 5.5-8.5-.228-.399-.562-.565-1-.5z"/><path style="opacity:1" fill="#424040" d="M45.5 37.5c2.996.974 4.663 2.974 5 6h-5c1.141-1.951 1.141-3.951 0-6z"/><path style="opacity:1" fill="#454242" d="M34.5 43.5h10c.41 6.822 3.41 12.155 9 16a10.1 10.1 0 0 1-6-1.5 185.516 185.516 0 0 0-13-10.5v-4z"/><path style="opacity:1" fill="#565352" d="M34.5 47.5a185.516 185.516 0 0 1 13 10.5 10.1 10.1 0 0 0 6 1.5c3.777 2.22 5.444 5.554 5 10h-38v-3c-.172-.992.162-1.658 1-2a2.428 2.428 0 0 0 .5 2c2.542-3.117 5.542-5.783 9-8 1.454-1.744 1.621-3.41.5-5a363.698 363.698 0 0 1 3-6z"/><path style="opacity:1" fill="#716e6e" d="M31.5 53.5c1.121 1.59.954 3.256-.5 5-3.458 2.217-6.458 4.883-9 8a2.428 2.428 0 0 1-.5-2 55.413 55.413 0 0 1 10-11z"/><path style="opacity:1" fill="#403f3e" d="M20.5 66.5v3h38a380.842 380.842 0 0 1-39 1c-.268-1.599.066-2.932 1-4z"/></svg>