<svg xmlns="http://www.w3.org/2000/svg" width="80" height="80" style="shape-rendering:geometricPrecision;text-rendering:geometricPrecision;image-rendering:optimizeQuality;fill-rule:evenodd;clip-rule:evenodd"><path style="opacity:.955" fill="#272727" d="M30.5 6.5c2.687 1.164 5.02 2.997 7 5.5 16.57 3.231 25.236 13.231 26 30 .262 5.281-.738 10.281-3 15 5.024 3.892 7.024 9.059 6 15.5h-49c-.507-4.62.326-8.954 2.5-13 4.887-7.06 10.72-13.393 17.5-19-1.074-.58-2.074-.08-3 1.5-4.49.263-7.823 2.263-10 6-5.398 1.219-9.898-.281-13.5-4.5.37-5.766 2.704-10.766 7-15 1.178-5.552 3.845-10.22 8-14 .494-3.396 1.994-6.063 4.5-8z"/><path style="opacity:1" fill="#565352" d="M22.5 61.5c12.987.02 25.987.02 39 0 .667 0 1 .333 1 1v7h-42c-.163-2.357.003-4.69.5-7 .383-.556.883-.89 1.5-1z"/><path style="opacity:1" fill="#6d6b6a" d="M61.5 61.5c-13.013.02-26.013.02-39 0 1.342-1.293 3.009-2.126 5-2.5a210.49 210.49 0 0 1 29 0c1.991.374 3.658 1.207 5 2.5z"/><path style="opacity:1" fill="#6e6c6b" d="M30.5 10.5c1.739 1.62 2.239 3.62 1.5 6-5.07 2.402-7.736 6.402-8 12a126.605 126.605 0 0 1-10.5 12 424.09 424.09 0 0 1 17-30z"/><path style="opacity:1" fill="#434040" d="M49.5 19.5c5.586 3.438 9.086 8.438 10.5 15 .868 7.781.368 15.448-1.5 23h-30c5.846-.667 11.846-1.333 18-2a140.139 140.139 0 0 1 7.5-12 35.066 35.066 0 0 0 1-15 88.252 88.252 0 0 0-5.5-9z"/><path style="opacity:1" fill="#555251" d="M30.5 10.5c.06-.543.393-.876 1-1a38.9 38.9 0 0 0 5 5.5c4.672.745 9.006 2.245 13 4.5a88.252 88.252 0 0 1 5.5 9 35.066 35.066 0 0 1-1 15 140.139 140.139 0 0 0-7.5 12c-6.154.667-12.154 1.333-18 2-.876.13-1.543-.203-2-1l1.5-3c4.768-4.26 8.934-8.927 12.5-14 1.674-3.054 2.174-6.388 1.5-10-1.67 1.346-2.836 3.013-3.5 5a25.49 25.49 0 0 1-7 5c-1.9.067-3.734-.267-5.5-1-1.876 1.119-2.71 2.786-2.5 5-1.51 1.941-3.51 2.441-6 1.5-2.251-.748-3.584-2.248-4-4.5 3.718-3.74 7.218-7.74 10.5-12 .264-5.598 2.93-9.598 8-12 .739-2.38.239-4.38-1.5-6z"/><path style="opacity:1" fill="#454342" d="M31.5 39.5c-3.026.486-5.693 1.82-8 4-.21-2.214.624-3.881 2.5-5 1.766.733 3.6 1.067 5.5 1z"/><path style="opacity:1" fill="#454242" d="M40.5 39.5c.38-2.198-.287-3.865-2-5 .664-1.987 1.83-3.654 3.5-5 .674 3.612.174 6.946-1.5 10z"/><path style="opacity:1" fill="#2b2a2a" d="M30.5 21.5c3-.333 4.333 1 4 4-1.967-.24-3.8.094-5.5 1-.613-1.995-.113-3.662 1.5-5z"/><path style="opacity:1" fill="#434140" d="M62.5 62.5c.973 2.448 1.306 5.115 1 8-14.51.33-28.843-.004-43-1h42v-7z"/></svg>