<svg xmlns="http://www.w3.org/2000/svg" width="80" height="80" style="shape-rendering:geometricPrecision;text-rendering:geometricPrecision;image-rendering:optimizeQuality;fill-rule:evenodd;clip-rule:evenodd"><path style="opacity:.543" fill="#272727" d="M34.5 4.5h11v6h5v11c15.431-1.402 22.265 5.598 20.5 21-3.028 6.034-7.195 11.2-12.5 15.5a11.529 11.529 0 0 1 4.5 3.5 46.958 46.958 0 0 1 1.5 11h-49c-.165-3.35.002-6.683.5-10 .833-2.167 2.333-3.667 4.5-4.5A75.148 75.148 0 0 1 8 41.5C6.582 33.757 9.082 27.59 15.5 23a36.133 36.133 0 0 1 13-1.5v-11h5c-.175-2.12.159-4.12 1-6zm-10 32c2.293-.256 4.46.077 6.5 1 1.998 9.234.33 10.567-5 4-1.009-1.525-1.509-3.192-1.5-5zm24 0h6c-.645 4.178-2.812 7.511-6.5 10-.747-3.424-.58-6.757.5-10z"/><path style="opacity:1" fill="#555251" d="M42.5 8.5v4h5v6h-5c-.268 1.599.066 2.932 1 4 .115 3.585 1.449 4.418 4 2.5 5.926-1.11 11.592-.444 17 2 1.323.816 1.99 1.983 2 3.5.367 4.467-.133 8.8-1.5 13L52.5 56c-7.844.171-15.511.671-23 1.5a18.436 18.436 0 0 1-6-.5 232.396 232.396 0 0 0-12-13.5c-1.35-9.13 2.316-15.297 11-18.5a4.932 4.932 0 0 0-3-.5c.949-.652 2.115-.986 3.5-1 3.857.605 7.69 1.272 11.5 2 1.663-1.939 2.33-4.272 2-7h-4v-4h5v-6h5zm-18 28c-.009 1.808.491 3.475 1.5 5 5.33 6.567 6.998 5.234 5-4-2.04-.923-4.207-1.256-6.5-1zm24 0c-1.08 3.243-1.247 6.576-.5 10 3.688-2.489 5.855-5.822 6.5-10h-6z"/><path style="opacity:1" fill="#696766" d="M42.5 8.5h-5v6h-5v4c-.961-1.765-1.295-3.765-1-6h5v-5c2.235-.295 4.235.039 6 1z"/><path style="opacity:1" fill="#413f3f" d="M47.5 12.5c.968 2.107 1.302 4.44 1 7h-5v3-3h5c.302-2.56-.032-4.893-1-7z"/><path style="opacity:.757" fill="#313030" d="M31.5 12.5c-.295 2.235.039 4.235 1 6h4c.33 2.728-.337 5.061-2 7 .237-1.291-.096-2.291-1-3-.709-.904-1.709-1.237-3-1-.11-.617-.444-1.117-1-1.5.623-2.607 1.29-5.107 2-7.5z"/><path style="opacity:1" fill="#666363" d="M19.5 24.5a4.932 4.932 0 0 1 3 .5c-8.684 3.203-12.35 9.37-11 18.5-3.029-8.925-.362-15.259 8-19z"/><path style="opacity:.551" fill="#282828" d="M24.5 33.5c3.615-.294 6.782.706 9.5 3 .499 4.32.666 8.654.5 13-1.7.16-3.366-.007-5-.5-4.542-3.6-7.042-8.1-7.5-13.5.995-.566 1.828-1.233 2.5-2zm0 3c-.009 1.808.491 3.475 1.5 5 5.33 6.567 6.998 5.234 5-4-2.04-.923-4.207-1.256-6.5-1z"/><path style="opacity:.408" fill="#282828" d="M48.5 33.5c7.953-1.16 10.453 1.84 7.5 9-10.032 10.724-13.699 8.724-11-6a30.139 30.139 0 0 1 3.5-3zm0 3c-1.08 3.243-1.247 6.576-.5 10 3.688-2.489 5.855-5.822 6.5-10h-6z"/><path style="opacity:1" fill="#413e3e" d="M66.5 30.5c.722.418 1.222 1.084 1.5 2a25.249 25.249 0 0 1 0 10 76.791 76.791 0 0 1-11.5 14 183.123 183.123 0 0 1-27 1 260.622 260.622 0 0 1 23-1.5L65 43.5c1.367-4.2 1.867-8.533 1.5-13z"/><path style="opacity:1" fill="#6e6c6c" d="M59.5 61.5c-13.056.107-26.056.107-39 0 1.342-1.293 3.009-2.126 5-2.5a156.492 156.492 0 0 1 25 0c3.311.057 6.311.89 9 2.5z"/><path style="opacity:1" fill="#565352" d="M20.5 61.5c12.944.107 25.944.107 39 0 .904.709 1.237 1.709 1 3v5h-42v-5c-.073-1.527.594-2.527 2-3z"/><path style="opacity:1" fill="#444242" d="M18.5 64.5v5h42v-5c.961 1.765 1.295 3.765 1 6h-44c-.295-2.235.039-4.235 1-6z"/></svg>