<svg xmlns="http://www.w3.org/2000/svg" width="80" height="80" style="shape-rendering:geometricPrecision;text-rendering:geometricPrecision;image-rendering:optimizeQuality;fill-rule:evenodd;clip-rule:evenodd"><path style="opacity:.718" fill="#272727" d="M35.5 11.5a49.391 49.391 0 0 1 11 1c-.484 8.285.516 8.785 3 1.5 3.744-.928 7.244-.428 10.5 1.5a65.855 65.855 0 0 1-1 14 41.22 41.22 0 0 1-4.5 6 367.679 367.679 0 0 1 2.5 20c2.2 2.115 4.2 4.449 6 7 .498 3.317.665 6.65.5 10h-48c-.165-3.35.002-6.683.5-10 1.8-2.551 3.8-4.885 6-7a367.679 367.679 0 0 1 2.5-20 41.22 41.22 0 0 1-4.5-6 65.855 65.855 0 0 1-1-14c3.256-1.928 6.756-2.428 10.5-1.5 2.484 7.285 3.484 6.785 3-1.5 1.291.237 2.291-.096 3-1z"/><path style="opacity:1" fill="#555251" d="M54.5 16.5c.286 5.032-1.048 9.532-4 13.5a177.62 177.62 0 0 0-19 1.5 24.939 24.939 0 0 1-7-.5c-.88-.708-1.547-1.542-2-2.5.73-3.53 1.396-7.197 2-11-.124-.607-.457-.94-1-1 1.1-1.098 2.434-1.265 4-.5a66.778 66.778 0 0 1 2 5.5c1.545.952 3.212 1.285 5 1v-8h9a41.58 41.58 0 0 1 1 8h6a18.436 18.436 0 0 1 .5-6c1.292-1.291 2.458-1.291 3.5 0z"/><path style="opacity:1" fill="#434140" d="M54.5 16.5c.996-.086 1.83.248 2.5 1a25.249 25.249 0 0 1 0 10 6.975 6.975 0 0 1-2.5 3.5c-7.66.5-15.326.666-23 .5a177.62 177.62 0 0 1 19-1.5c2.952-3.968 4.286-8.468 4-13.5z"/><path style="opacity:1" fill="#6f6d6c" d="M23.5 16.5c.543.06.876.393 1 1-.604 3.803-1.27 7.47-2 11a41.52 41.52 0 0 1-1-7c.056-2.14.723-3.806 2-5z"/><path style="opacity:1" fill="#555251" d="M29.5 33.5c9.495-.989 15.661 3.011 18.5 12a46.958 46.958 0 0 1 1.5 11c-7.187-.325-14.187.009-21 1h-4c.796-7.662 1.63-15.33 2.5-23 .67-.752 1.504-1.086 2.5-1z"/><path style="opacity:1" fill="#423f3f" d="M29.5 33.5c7.504-1 15.17-1 23 0a187.82 187.82 0 0 0 2 24h-26c6.813-.991 13.813-1.325 21-1a46.958 46.958 0 0 0-1.5-11c-2.839-8.989-9.005-12.989-18.5-12z"/><path style="opacity:1" fill="#5b5959" d="M54.5 59.5a316.578 316.578 0 0 0-33 1c.762-.768 1.762-1.268 3-1.5 10.175-.825 20.175-.658 30 .5z"/><path style="opacity:1" fill="#726f6f" d="M54.5 59.5c2.174.25 3.84 1.25 5 3-13.524-.914-26.858-1.247-40-1l2-1a316.578 316.578 0 0 1 33-1z"/><path style="opacity:1" fill="#565352" d="M19.5 61.5c13.142-.247 26.476.086 40 1 .667 0 1 .333 1 1v6h-42v-6c-.172-.992.162-1.658 1-2z"/><path style="opacity:1" fill="#413f3e" d="M18.5 63.5v6h42v-6c.968 2.107 1.302 4.44 1 7h-44c-.302-2.56.032-4.893 1-7z"/></svg>