<svg xmlns="http://www.w3.org/2000/svg" width="80" height="80" style="shape-rendering:geometricPrecision;text-rendering:geometricPrecision;image-rendering:optimizeQuality;fill-rule:evenodd;clip-rule:evenodd"><path style="opacity:.804" fill="#272727" d="M26.5 7.5c10.615-.577 13.948 3.923 10 13.5a53.153 53.153 0 0 0 3.5 7.5l2.5-7.5c-3.8-9.865-.466-14.198 10-13 5.558 3.741 6.225 8.241 2 13.5a24.558 24.558 0 0 0-.5 12c2.093-2.544 3.093-5.544 3-9 4.366-5.874 9.033-6.207 14-1 2.206 5.549.706 9.882-4.5 13a552.761 552.761 0 0 0-9 20.5c5.688 3.504 8.022 8.67 7 15.5h-49c-.165-3.35.002-6.683.5-10 1.554-2.496 3.387-4.663 5.5-6.5l-8-19L8 31.5C6.662 22.107 10.496 18.607 19.5 21c3.138 2.575 4.138 5.742 3 9.5a10.76 10.76 0 0 0 2.5 3 168.855 168.855 0 0 0 1.5-8c-1.977-3.182-3.31-6.682-4-10.5l.5-3.5a19.568 19.568 0 0 0 3.5-4z"/><path style="opacity:1" fill="#434040" d="M52.5 11.5c2.84 3.328 2.34 6.328-1.5 9a50.441 50.441 0 0 0-.5 10c-1.148-4.481-1.315-9.148-.5-14 1.883-1.153 2.716-2.82 2.5-5z"/><path style="opacity:1" fill="#6d6a6a" d="M28.5 10.5c.438-.065.772.101 1 .5-1.988 1.319-3.154 3.152-3.5 5.5a4.932 4.932 0 0 1-.5-3 6.541 6.541 0 0 1 3-3z"/><path style="opacity:1" fill="#555251" d="M28.5 10.5c1.838-1.178 3.505-.845 5 1 .104 2.59-.563 4.923-2 7-.047 1.538.62 2.538 2 3a153.416 153.416 0 0 1 6.5 16A119.735 119.735 0 0 1 45.5 21c-3.353-4.915-2.52-8.748 2.5-11.5 1.727.399 3.227 1.066 4.5 2 .216 2.18-.617 3.847-2.5 5-.815 4.852-.648 9.519.5 14a97.442 97.442 0 0 1 1.5 9l7-7c-1.234-3.642-.4-6.809 2.5-9.5 2.98-.838 5.314-.005 7 2.5-.472 3.315-2.305 5.649-5.5 7C58.66 42.506 51.828 50.34 42.5 56c-5.99.5-11.99.666-18 .5-3.224-10.787-8.224-20.454-15-29 1.165-4.52 3.831-5.853 8-4a32.437 32.437 0 0 0 .5 8c.708.88 1.542 1.547 2.5 2a73.496 73.496 0 0 1 7.5 7c.667-6.667.667-13.333 0-20-3.175-1.756-4.008-4.09-2.5-7a4.932 4.932 0 0 0 .5 3c.346-2.348 1.512-4.181 3.5-5.5-.228-.399-.562-.565-1-.5z"/><path style="opacity:1" fill="#454343" d="M33.5 11.5c1.493.812 2.16 2.146 2 4-.219 2.193-.885 4.193-2 6-1.38-.462-2.047-1.462-2-3 1.437-2.077 2.104-4.41 2-7z"/><path style="opacity:1" fill="#444242" d="M17.5 23.5c.958.453 1.792 1.12 2.5 2-.24 2.749-.072 5.415.5 8-.958-.453-1.792-1.12-2.5-2a32.437 32.437 0 0 1-.5-8z"/><path style="opacity:1" fill="#424040" d="M68.5 25.5c1.955 4.058.621 6.724-4 8l-10 23c-10.159 1.323-20.159 1.323-30 0 6.01.166 12.01 0 18-.5 9.328-5.66 16.16-13.494 20.5-23.5 3.195-1.351 5.028-3.685 5.5-7z"/><path style="opacity:1" fill="#6e6c6c" d="M59.5 61.5h-39c1.342-1.293 3.009-2.126 5-2.5a159.83 159.83 0 0 1 32 1c.544.717 1.21 1.217 2 1.5z"/><path style="opacity:1" fill="#565352" d="M20.5 61.5h39c.667 0 1 .333 1 1v7h-42v-5c-.073-1.527.594-2.527 2-3z"/><path style="opacity:1" fill="#424040" d="M60.5 62.5c.973 2.448 1.306 5.115 1 8h-44c-.295-2.235.039-4.235 1-6v5h42v-7z"/></svg>