<svg xmlns="http://www.w3.org/2000/svg" width="80" height="80" style="shape-rendering:geometricPrecision;text-rendering:geometricPrecision;image-rendering:optimizeQuality;fill-rule:evenodd;clip-rule:evenodd"><path style="opacity:.998" fill="#272727" d="M35.5 5.5c5.796-.939 9.462 1.395 11 7-5.87 7.986-8.87 16.986-9 27h3c-.616-8.213 1.55-15.546 6.5-22C59.578 28.482 62.078 41.315 54.5 56c7.386 2.922 10.386 8.422 9 16.5h-49c-1.511-8.156 1.489-13.656 9-16.5-7.786-14.711-5.286-27.545 7.5-38.5-.787-4.8.713-8.8 4.5-12z"/><path style="opacity:1" fill="#423f3f" d="M53.5 30.5c4.646 9.201 3.646 17.868-3 26-7.824 1.32-15.49 1.32-23 0 18.874 1.56 27.54-7.107 26-26z"/><path style="opacity:1" fill="#6d6b6a" d="M35.5 17.5c.438-.065.772.101 1 .5a57.203 57.203 0 0 0-8.5 9.5c-1.935 6.323-4.102 12.323-6.5 18-.672-11.99 3.995-21.323 14-28z"/><path style="opacity:1" fill="#434141" d="M38.5 19.5a63.308 63.308 0 0 0-3 22h7c-6.86 2.577-10.194.077-10-7.5.255-5.662 2.255-10.495 6-14.5z"/><path style="opacity:1" fill="#555251" d="M38.5 19.5c-3.745 4.005-5.745 8.838-6 14.5-.194 7.577 3.14 10.077 10 7.5.513-6.007 1.68-12.007 3.5-18 .718-.95 1.55-1.117 2.5-.5a54.199 54.199 0 0 1 5 7.5c1.54 18.893-7.126 27.56-26 26-2.742-3.192-4.742-6.858-6-11 2.398-5.677 4.565-11.677 6.5-18a57.203 57.203 0 0 1 8.5-9.5c-.228-.399-.562-.565-1-.5-3.726-6.78-1.726-9.613 6-8.5 1.074.739 1.74 1.739 2 3a97.902 97.902 0 0 0-5 7.5z"/><path style="opacity:1" fill="#706d6d" d="M58.5 61.5c-.417.624-1.084.957-2 1a4248.256 4248.256 0 0 1-35-2c11.48-2.484 23.146-2.65 35-.5.916.278 1.583.778 2 1.5z"/><path style="opacity:1" fill="#545150" d="M21.5 60.5c11.519.706 23.186 1.373 35 2 .916-.043 1.583-.376 2-1 .617.11 1.117.444 1.5 1 .497 2.646.664 5.313.5 8h-43a32.437 32.437 0 0 1 .5-8c.816-1.323 1.983-1.99 3.5-2z"/></svg>