<?xml version="1.0" encoding="UTF-8"?>
<svg version="1.1" xmlns="http://www.w3.org/2000/svg" width="80" height="80">
<path d="M0 0 C2.22414727 0.86096023 3.70319486 1.65767259 5.2734375 3.46875 C7.57396454 5.50903642 9.73059073 5.94735625 12.6875 6.75 C21.09954162 9.41499988 26.71186511 14.24837155 31 22 C34.85935257 31.72501118 34.00558591 42.48673347 30 52 C30.63421875 52.11085937 31.2684375 52.22171875 31.921875 52.3359375 C32.60765625 52.55507813 33.2934375 52.77421875 34 53 C36.22362796 57.66961872 36 60.57193296 36 66 C19.83 66 3.66 66 -13 66 C-13 55.66666667 -13 55.66666667 -10 52 C-9.01 51.34 -8.02 50.68 -7 50 C-6.46375 48.96875 -5.9275 47.9375 -5.375 46.875 C-2.69375584 41.86086229 1.66861762 38.56320986 6 35 C5.01 35.495 5.01 35.495 4 36 C1.96143185 36.70500482 -0.07940434 37.40156542 -2.125 38.0859375 C-4.3473125 38.97405929 -4.3473125 38.97405929 -6 42 C-10.38647162 42.59048656 -12.50886984 42.28194509 -16.375 40.0625 C-19 38 -19 38 -20 37 C-20 30.78556053 -17.4237902 27.45070569 -13.77734375 22.56640625 C-11.649576 19.49400315 -10.25904231 16.38552978 -8.921875 12.91015625 C-7.90258296 10.7981486 -6.65539396 9.6380145 -5 8 C-3.99515117 5.66875071 -2.99477753 3.33556463 -2 1 C-1.34 0.67 -0.68 0.34 0 0 Z " fill="#F4F4F4" transform="translate(31,7)"/>
<path d="M0 0 C2.22414727 0.86096023 3.70319486 1.65767259 5.2734375 3.46875 C7.57396454 5.50903642 9.73059073 5.94735625 12.6875 6.75 C21.09954162 9.41499988 26.71186511 14.24837155 31 22 C34.85935257 31.72501118 34.00558591 42.48673347 30 52 C30.63421875 52.11085937 31.2684375 52.22171875 31.921875 52.3359375 C32.60765625 52.55507813 33.2934375 52.77421875 34 53 C36.22362796 57.66961872 36 60.57193296 36 66 C19.83 66 3.66 66 -13 66 C-13 55.66666667 -13 55.66666667 -10 52 C-9.01 51.34 -8.02 50.68 -7 50 C-6.46375 48.96875 -5.9275 47.9375 -5.375 46.875 C-2.69375584 41.86086229 1.66861762 38.56320986 6 35 C5.01 35.495 5.01 35.495 4 36 C1.96143185 36.70500482 -0.07940434 37.40156542 -2.125 38.0859375 C-4.3473125 38.97405929 -4.3473125 38.97405929 -6 42 C-10.38647162 42.59048656 -12.50886984 42.28194509 -16.375 40.0625 C-19 38 -19 38 -20 37 C-20 30.78556053 -17.4237902 27.45070569 -13.77734375 22.56640625 C-11.649576 19.49400315 -10.25904231 16.38552978 -8.921875 12.91015625 C-7.90258296 10.7981486 -6.65539396 9.6380145 -5 8 C-3.99515117 5.66875071 -2.99477753 3.33556463 -2 1 C-1.34 0.67 -0.68 0.34 0 0 Z M0 3 C-0.24234375 3.51949219 -0.4846875 4.03898438 -0.734375 4.57421875 C-2.30683219 7.84613929 -3.77606752 10.72178086 -6.0625 13.5625 C-7.97008003 15.96235874 -8.96693909 18.20004553 -10.0703125 21.0390625 C-11.58592063 24.23584939 -13.75896672 26.97730372 -15.890625 29.7890625 C-17.22009911 31.9833868 -17.22009911 31.9833868 -16.859375 34.6484375 C-16.14093167 37.33295183 -16.14093167 37.33295183 -13 39 C-10.54258463 39.50014953 -10.54258463 39.50014953 -8 39 C-7.071875 38.071875 -7.071875 38.071875 -6.125 37.125 C-3.35977558 34.35977558 -0.71872006 34.06249144 3 33 C5.27191416 30.97959252 5.27191416 30.97959252 7 29 C7.66 29 8.32 29 9 29 C9.3359375 31.65234375 9.3359375 31.65234375 9 35 C7.24467206 37.11637365 5.66427752 38.77558307 3.625 40.5625 C-0.11123059 43.91467643 -2.05308857 46.13272143 -4 51 C6.56 51 17.12 51 28 51 C30.28780615 41.84877541 32.32867936 30.68867514 28.08984375 21.703125 C23.85779979 15.08960827 19.10498592 12.18661463 11.6484375 9.921875 C7.26738619 8.39690729 4.59134456 6.88701684 2 3 C1.34 3 0.68 3 0 3 Z " fill="#505050" transform="translate(31,7)"/>
<path d="M0 0 C0.99 -0.00128906 1.98 -0.00257812 3 -0.00390625 C4.02351563 -0.00003906 5.04703125 0.00382812 6.1015625 0.0078125 C7.62523437 0.00201172 7.62523437 0.00201172 9.1796875 -0.00390625 C23.04850155 0.0141052 23.04850155 0.0141052 27.1640625 2.7578125 C28.7265625 5.1328125 28.7265625 5.1328125 28.7265625 12.1328125 C14.5365625 12.1328125 0.3465625 12.1328125 -14.2734375 12.1328125 C-14.2734375 4.1328125 -14.2734375 4.1328125 -12.5859375 2.1953125 C-8.48007901 0.30883698 -4.47662286 0.00565536 0 0 Z " fill="#EEEEEE" transform="translate(35.2734375,58.8671875)"/>
<path d="M0 0 C5.59290752 2.79645376 9.7439651 7.00158672 12.16015625 12.76953125 C13.10894784 16.41906913 13.26554142 19.60620597 13.25 23.375 C13.25515625 24.62023437 13.2603125 25.86546875 13.265625 27.1484375 C13 31 13 31 11 39 C2.09 39 -6.82 39 -16 39 C-16 38.67 -16 38.34 -16 38 C-11.05 38 -6.1 38 -1 38 C-0.34 36.02 0.32 34.04 1 32 C2.25390625 29.734375 2.25390625 29.734375 3.5625 27.75 C7.26214272 22.08526515 7.69263735 17.79533397 7 11 C5.54816604 6.93199001 3.63749369 4.42499579 0 2 C0 1.34 0 0.68 0 0 Z " fill="#CACACA" transform="translate(48,19)"/>
<path d="M0 0 C0.33 0 0.66 0 1 0 C1 2.97 1 5.94 1 9 C15.52 9 30.04 9 45 9 C45 7.35 45 5.7 45 4 C45.66 4 46.32 4 47 4 C47 6.31 47 8.62 47 11 C30.83 11 14.66 11 -2 11 C-2 2 -2 2 0 0 Z " fill="#484848" transform="translate(20,62)"/>
<path d="M0 0 C0.33 0.66 0.66 1.32 1 2 C3.02463255 2.65213292 3.02463255 2.65213292 5 3 C5.84098656 7.01804691 6.05404945 10.01803543 5 14 C4.67 14 4.34 14 4 14 C3.896875 12.906875 3.79375 11.81375 3.6875 10.6875 C3.25485472 7.17782085 3.25485472 7.17782085 1.875 5.125 C-0.94403684 3.43357789 -3.76977183 3.30473851 -7 3 C-4.64046906 0.64046906 -3.22104383 0.50858587 0 0 Z " fill="#565656" transform="translate(60,57)"/>
<path d="M0 0 C0.3125 2.125 0.3125 2.125 0 5 C-2.375 8.125 -2.375 8.125 -5 11 C-5.99 12.485 -5.99 12.485 -7 14 C-7.66 14 -8.32 14 -9 14 C-8.19483185 10.05467606 -5.1972541 0 0 0 Z " fill="#4C4C4C" transform="translate(29,12)"/>
<path d="M0 0 C0.99 0.33 1.98 0.66 3 1 C3 2.98 3 4.96 3 7 C2.38125 6.79375 1.7625 6.5875 1.125 6.375 C0.42375 6.25125 -0.2775 6.1275 -1 6 C-1.66 6.66 -2.32 7.32 -3 8 C-3.99 7.67 -4.98 7.34 -6 7 C-6 6.34 -6 5.68 -6 5 C-3.1875 2.3125 -3.1875 2.3125 0 0 Z " fill="#545454" transform="translate(38,35)"/>
<path d="M0 0 C2.0625 0.4375 2.0625 0.4375 4 1 C3.67 2.32 3.34 3.64 3 5 C1.35 5 -0.3 5 -2 5 C-1.125 1.125 -1.125 1.125 0 0 Z " fill="#6F6F6F" transform="translate(31,22)"/>
<path d="M0 0 C0.25 6.625 0.25 6.625 -2 10 C-3.1875 7.25 -3.1875 7.25 -4 4 C-1.78947368 0 -1.78947368 0 0 0 Z " fill="#CFCFCF" transform="translate(43,30)"/>
</svg>
