<?xml version="1.0" encoding="UTF-8"?>
<svg version="1.1" xmlns="http://www.w3.org/2000/svg" width="80" height="80">
<path d="M0 0 C0.680625 -0.00257812 1.36125 -0.00515625 2.0625 -0.0078125 C4 0.125 4 0.125 7 1.125 C7.33 3.105 7.66 5.085 8 7.125 C8.66 5.475 9.32 3.825 10 2.125 C11.258125 2.08375 12.51625 2.0425 13.8125 2 C14.52019531 1.97679687 15.22789063 1.95359375 15.95703125 1.9296875 C18 2.125 18 2.125 21 4.125 C20.9127395 6.37571906 20.80455885 8.62563388 20.6875 10.875 C20.60048828 12.75445313 20.60048828 12.75445313 20.51171875 14.671875 C19.99541086 18.15596795 19.49219966 19.68818255 17 22.125 C16.34 22.125 15.68 22.125 15 22.125 C15.19916016 23.37603516 15.19916016 23.37603516 15.40234375 24.65234375 C15.57894531 25.77769531 15.75554688 26.90304688 15.9375 28.0625 C16.22173828 29.84333984 16.22173828 29.84333984 16.51171875 31.66015625 C16.90754855 34.46896453 17.1177253 37.17324076 17.25 40 C17.57946004 43.55946043 18.56191503 45.03849035 21.0625 47.5625 C24 51.125 24 51.125 24 61.125 C8.16 61.125 -7.68 61.125 -24 61.125 C-24 51.125 -24 51.125 -21.125 48.125 C-20.57714844 47.59261719 -20.02929688 47.06023438 -19.46484375 46.51171875 C-16.2280256 41.23786305 -16.55690529 34.17663575 -16.2019043 28.12036133 C-15.9920262 26.04619721 -15.552034 24.13283054 -15 22.125 C-15.63421875 21.89296875 -16.2684375 21.6609375 -16.921875 21.421875 C-19 20.125 -19 20.125 -19.828125 17.953125 C-21.47244094 7.90452756 -21.47244094 7.90452756 -21 4.125 C-17.91111478 2.06574319 -17.29064073 1.8859626 -13.8125 2 C-11.9253125 2.061875 -11.9253125 2.061875 -10 2.125 C-9.34 3.775 -8.68 5.425 -8 7.125 C-7.67 5.145 -7.34 3.165 -7 1.125 C-4.32356043 0.23285348 -2.74615622 -0.01040211 0 0 Z " fill="#4E4E4E" transform="translate(40,11.875)"/>
<path d="M0 0 C1.17046875 -0.00257812 2.3409375 -0.00515625 3.546875 -0.0078125 C7.46363105 0.13266187 11.36099083 0.63887385 15.25 1.125 C15.91 9.045 16.57 16.965 17.25 25.125 C7.35 25.125 -2.55 25.125 -12.75 25.125 C-12.09 17.205 -11.43 9.285 -10.75 1.125 C-6.92333729 0.16833432 -3.92109397 -0.00856134 0 0 Z " fill="#F4F4F4" transform="translate(37.75,32.875)"/>
<path d="M0 0 C1.16273437 -0.020625 2.32546875 -0.04125 3.5234375 -0.0625 C14.17027584 -0.11122695 14.17027584 -0.11122695 19 3.25 C21 5.25 21 5.25 21 12.25 C6.48 12.25 -8.04 12.25 -23 12.25 C-23 5.25 -23 5.25 -21.375 2.875 C-15.4733804 -1.16295025 -6.87617501 0.03049302 0 0 Z " fill="#ECECEC" transform="translate(41,58.75)"/>
<path d="M0 0 C2.64 0 5.28 0 8 0 C8.33 2.64 8.66 5.28 9 8 C10.98 8 12.96 8 15 8 C15.33 5.69 15.66 3.38 16 1 C20.875 1.875 20.875 1.875 22 3 C22.203125 5.14453125 22.203125 5.14453125 22.25 7.8125 C22.27578125 8.68519531 22.3015625 9.55789062 22.328125 10.45703125 C21.92026369 13.61795639 21.26984596 14.76250547 19 17 C15.953125 17.51757812 15.953125 17.51757812 12.25 17.53125 C11.59547852 17.5350769 10.94095703 17.53890381 10.26660156 17.54284668 C8.88474995 17.54556491 7.50284682 17.53820951 6.12109375 17.52148438 C4.00664503 17.50006731 1.89559314 17.52128239 -0.21875 17.546875 C-1.56250749 17.5442317 -2.90626287 17.53910666 -4.25 17.53125 C-5.47203125 17.52673828 -6.6940625 17.52222656 -7.953125 17.51757812 C-11 17 -11 17 -12.90356445 15.14160156 C-14.32409434 12.36696603 -14.29821151 10.34992241 -14.1875 7.25 C-14.16042969 6.26515625 -14.13335938 5.2803125 -14.10546875 4.265625 C-14.07066406 3.51796875 -14.03585938 2.7703125 -14 2 C-12.02 2 -10.04 2 -8 2 C-7.67 3.98 -7.34 5.96 -7 8 C-5.02 8 -3.04 8 -1 8 C-0.67 5.36 -0.34 2.72 0 0 Z " fill="#F0F0F0" transform="translate(36,15)"/>
<path d="M0 0 C2.16659374 -0.02738672 4.33329175 -0.04656832 6.5 -0.0625 C8.30984375 -0.07990234 8.30984375 -0.07990234 10.15625 -0.09765625 C14.11980619 0.00304386 18.06578175 0.50822272 22 1 C22.66 8.92 23.32 16.84 24 25 C15.75 25 7.5 25 -1 25 C-1 24.67 -1 24.34 -1 24 C5.6 24 12.2 24 19 24 C18.443125 21.463125 17.88625 18.92625 17.3125 16.3125 C17.14919189 15.52270752 16.98588379 14.73291504 16.81762695 13.91918945 C15.66241903 9.00971098 14.13136259 6.17058059 10 3 C7.37138341 1.99747385 7.37138341 1.99747385 4.6875 1.6875 C3.80449219 1.54699219 2.92148437 1.40648437 2.01171875 1.26171875 C1.01591797 1.13216797 1.01591797 1.13216797 0 1 C0 0.67 0 0.34 0 0 Z " fill="#C4C4C4" transform="translate(31,33)"/>
<path d="M0 0 C4.74166593 1.58055531 6.12437013 3.84631241 9 8 C9 11.3 9 14.6 9 18 C-6.84 18 -22.68 18 -39 18 C-39 15.03 -39 12.06 -39 9 C-38.34 8.67 -37.68 8.34 -37 8 C-37 10.64 -37 13.28 -37 16 C-22.48 16 -7.96 16 7 16 C6.505 12.535 6.505 12.535 6 9 C4.02514795 7.6296945 2.02613283 6.29327628 0 5 C-0.375 2.25 -0.375 2.25 0 0 Z " fill="#484848" transform="translate(55,55)"/>
<path d="M0 0 C0.66 0.33 1.32 0.66 2 1 C2.08153933 2.58246707 2.13943557 4.16616273 2.1875 5.75 C2.23970703 7.07257812 2.23970703 7.07257812 2.29296875 8.421875 C1.93518697 11.57035469 1.19113768 12.73281416 -1 15 C-3.36010742 15.45410156 -3.36010742 15.45410156 -6.10546875 15.390625 C-7.57983398 15.37128906 -7.57983398 15.37128906 -9.08398438 15.3515625 C-10.10814453 15.31804688 -11.13230469 15.28453125 -12.1875 15.25 C-13.74114258 15.22292969 -13.74114258 15.22292969 -15.32617188 15.1953125 C-17.88504284 15.14814437 -20.44205842 15.08234057 -23 15 C-23 14.67 -23 14.34 -23 14 C-21.10314453 13.97873047 -21.10314453 13.97873047 -19.16796875 13.95703125 C-17.50777588 13.91013315 -15.84762073 13.86188574 -14.1875 13.8125 C-12.93743164 13.80379883 -12.93743164 13.80379883 -11.66210938 13.79492188 C-9.34163092 13.71104916 -7.25154952 13.57093168 -5 13 C-2.52419633 10.17603644 -1.61239411 7.31778863 -0.8125 3.6875 C-0.544375 2.470625 -0.27625 1.25375 0 0 Z " fill="#C0C0C0" transform="translate(56,17)"/>
</svg>
